<?xml version="1.0" encoding="UTF-8"?> <svg xmlns="http://www.w3.org/2000/svg" width="107" height="19" viewBox="0 0 107 19" fill="none"><path d="M104.897 14.5835C103.988 14.5835 103.253 15.3191 103.253 16.1846C103.253 17.0934 103.988 17.829 104.897 17.829C105.806 17.829 106.498 17.0934 106.498 16.1846C106.541 15.3191 105.806 14.5835 104.897 14.5835ZM97.4106 12.1601C98.6655 12.3332 100.137 12.6794 100.137 14.2373C100.137 14.8864 99.7907 15.4922 99.2714 15.8817C98.7088 16.3577 97.8866 16.4443 97.1942 16.4443C96.1556 16.4443 94.641 16.0981 93.8188 15.3624C93.2562 14.8864 93.2562 14.5835 93.1264 13.0689C93.0831 12.4197 92.7802 12.2466 92.3475 12.2466C91.7849 12.2466 91.482 12.5928 91.482 13.1554C91.482 13.8478 91.6984 14.5402 91.6984 15.1893C91.6984 15.8817 91.482 16.5741 91.482 17.3097C91.482 17.8723 91.7849 18.3916 92.434 18.3916C92.9966 18.3916 93.4293 17.9156 93.2995 16.9636C94.3381 17.829 95.6363 18.1752 96.9778 18.1752C99.531 18.1752 102.214 16.877 102.214 14.0209C102.214 11.3812 100.396 10.6455 96.9778 10.2128C94.8141 9.9531 93.9486 9.52036 93.9486 8.2654C93.9486 6.7508 95.4632 6.01513 96.8047 6.01513C97.6269 6.01513 98.5357 6.44788 99.1848 6.9239C99.6608 7.27009 99.7474 7.44319 99.7474 8.4385C99.7474 9.26071 100.05 9.65018 100.57 9.65018C101.132 9.65018 101.478 9.26072 101.478 8.69815C101.478 8.09231 101.305 7.44318 101.305 6.83734C101.305 6.18823 101.478 5.58239 101.478 4.97655C101.478 4.45726 101.132 4.15434 100.613 4.15434C99.9638 4.15434 99.7041 4.63036 99.7907 5.2362C98.9684 4.54381 97.8433 4.37071 96.8047 4.37071C94.3381 4.37071 91.8715 5.75549 91.8715 8.48178C91.8715 11.511 94.9439 11.9005 97.4106 12.1601ZM77.0716 13.8478C77.1149 15.1028 77.4178 16.3577 78.4564 17.1799C79.4084 17.8723 80.6634 18.2185 81.8318 18.2185C83.5195 18.2185 84.9908 17.7425 85.9429 16.3144H85.9861C85.9429 17.3097 86.0727 17.8723 86.592 17.8723C87.068 17.8723 87.544 17.6127 88.0633 17.6127C88.5393 17.6127 89.0153 17.8723 89.4914 17.8723C90.0107 17.8723 90.5732 17.5261 90.5732 16.9203C90.5732 16.4443 90.227 16.0981 89.7077 16.0981C89.3615 16.0981 88.9721 16.2712 88.5393 16.2712C88.0633 16.2712 87.8037 15.925 87.8037 14.1507V9.39054C87.8037 8.04904 87.8902 6.83735 87.8902 5.58239C87.8902 5.0631 87.6738 4.7169 87.1113 4.7169C86.6353 4.7169 86.1592 4.97655 85.6832 4.97655C85.1639 4.97655 84.6879 4.7169 84.1253 4.7169C83.4762 4.7169 82.9137 5.0631 82.9137 5.66894C82.9137 6.14496 83.2599 6.49115 83.7791 6.49115C84.1253 6.49115 84.5148 6.31806 84.9476 6.31806C85.4668 6.31806 85.8563 6.96717 85.8563 8.4385V10.1695C85.8563 11.3812 85.813 13.1987 85.4669 14.3238C84.9908 15.8384 83.6493 16.4875 82.1347 16.4875C80.8798 16.4875 79.6681 15.925 79.2786 14.67C79.019 13.8045 79.019 12.2034 79.019 11.2946V10.1695C79.019 8.48177 79.1921 7.87593 79.1921 5.75548C79.1921 5.14964 79.0622 4.7169 78.3699 4.7169C77.8938 4.7169 77.4178 4.97655 76.9418 4.97655C76.4225 4.97655 75.9465 4.7169 75.4705 4.7169C74.7781 4.7169 74.2155 5.0631 74.2155 5.66894C74.2155 6.14496 74.5617 6.49115 75.081 6.49115C75.4272 6.49115 75.8167 6.31806 76.2494 6.31806C76.7687 6.31806 77.1149 6.83735 77.1149 8.4385L77.0716 13.8478ZM64.2624 11.2081C64.2624 10.0829 64.5221 8.74142 65.1279 7.74611C65.8636 6.49115 66.9454 6.01513 68.3302 6.01513C69.5419 6.01513 70.7103 6.4046 71.4027 7.48646C72.0518 8.48177 72.3114 9.90983 72.3114 11.0782C72.3114 13.7612 71.3161 16.4443 68.2004 16.4443C65.2577 16.4875 64.2624 13.718 64.2624 11.2081ZM62.1852 11.2946C62.1852 14.9729 64.1759 18.2185 68.2004 18.2185C72.3114 18.2185 74.4752 15.0595 74.4752 11.2081C74.4752 9.47708 73.9991 7.61628 72.874 6.2315C71.7056 4.80345 70.0612 4.32744 68.2437 4.32744C64.1326 4.32744 62.1852 7.52974 62.1852 11.2946ZM57.8578 0.476021C57.0789 0.476021 56.4298 1.12513 56.4298 1.90407C56.4298 2.72628 57.0789 3.37539 57.8578 3.37539C58.68 3.37539 59.3291 2.72628 59.3291 1.90407C59.3291 1.08186 58.68 0.476021 57.8578 0.476021ZM57.3385 14.1074C57.3385 15.6653 57.1654 16.2279 56.6029 16.2279C56.1701 16.2279 55.7806 16.0548 55.4344 16.0548C54.9152 16.0548 54.569 16.401 54.569 16.877C54.569 17.353 55.0017 17.829 55.4344 17.829C56.2999 17.829 57.0356 17.5694 58.1175 17.5694C59.1993 17.5694 59.8484 17.829 60.7139 17.829C61.2332 17.829 61.7958 17.4828 61.7958 16.877C61.7958 16.401 61.4496 16.0548 60.9303 16.0548C60.5408 16.0115 60.1946 16.2279 59.935 16.2279C59.459 16.2279 59.2859 15.7951 59.2859 15.1893V5.75548C59.2859 5.23619 59.156 4.67363 58.5935 4.67363C58.1175 4.67363 57.7713 4.93327 57.1654 4.93327C56.5596 4.93327 56.1701 4.67363 55.4777 4.67363C55.0017 4.67363 54.6122 5.01983 54.6122 5.62567C54.6122 6.10168 54.9584 6.44788 55.4777 6.44788C55.8239 6.44788 56.2134 6.27478 56.6461 6.27478C57.2087 6.27478 57.3818 6.62097 57.3818 8.39522L57.3385 14.1074ZM48.6836 16.4875C45.741 16.4875 44.789 13.718 44.789 11.2513C44.789 8.78469 45.9574 6.01513 48.8135 6.01513C49.9386 6.01513 51.5398 6.66425 51.583 8.00576C50.8906 8.04903 50.2848 8.43851 50.2848 9.17417C50.2848 9.99638 50.9772 10.5589 51.7994 10.5589C53.0976 10.5589 53.7035 9.43381 53.7035 8.2654C53.7035 7.05372 52.9678 5.88532 52.0158 5.2362C51.1503 4.63036 49.9819 4.32744 48.9433 4.32744C44.7024 4.32744 42.7118 7.61629 42.7118 11.511C42.7118 15.0595 44.7457 18.2185 48.5971 18.2185C50.1117 18.2185 51.6263 17.6992 52.6649 16.5741C53.314 15.8817 54.0497 14.4536 54.0497 13.4583C54.0497 12.939 53.5736 12.463 53.0544 12.463C52.1889 12.463 52.059 13.3285 51.8859 14.0209C51.4532 15.4922 50.2415 16.4875 48.6836 16.4875ZM37.9949 0.476021C37.2159 0.476021 36.5668 1.12513 36.5668 1.90407C36.5668 2.72628 37.2159 3.37539 37.9949 3.37539C38.8171 3.37539 39.4662 2.72628 39.4662 1.90407C39.4662 1.08186 38.7738 0.476021 37.9949 0.476021ZM37.4323 14.1074C37.4323 15.6653 37.2592 16.2279 36.6967 16.2279C36.2639 16.2279 35.8744 16.0548 35.5282 16.0548C35.0089 16.0548 34.6628 16.401 34.6628 16.877C34.6628 17.353 35.0955 17.829 35.5282 17.829C36.3937 17.829 37.1294 17.5694 38.2113 17.5694C39.2931 17.5694 39.9422 17.829 40.8077 17.829C41.327 17.829 41.8896 17.4828 41.8896 16.877C41.8896 16.401 41.5434 16.0548 41.0241 16.0548C40.6346 16.0115 40.2884 16.2279 40.0288 16.2279C39.5528 16.2279 39.3797 15.7951 39.3797 15.1893V5.75548C39.3797 5.23619 39.2498 4.67363 38.6873 4.67363C38.2113 4.67363 37.8651 4.93327 37.2592 4.93327C36.6534 4.93327 36.2639 4.67363 35.5715 4.67363C35.0955 4.67363 34.706 5.01983 34.706 5.62567C34.706 6.10168 35.0522 6.44788 35.5715 6.44788C35.9177 6.44788 36.3072 6.27478 36.7399 6.27478C37.3025 6.27478 37.4756 6.62097 37.4756 8.39522L37.4323 14.1074ZM29.2535 14.1074C29.2535 15.5355 29.1236 16.2279 28.5178 16.2279C28.0851 16.2279 27.6956 16.0548 27.3494 16.0548C26.8301 16.0548 26.4839 16.401 26.4839 16.877C26.4839 17.4396 27.0465 17.829 27.5658 17.829C28.4312 17.829 29.0804 17.5694 30.2488 17.5694C31.5037 17.5694 31.9797 17.829 32.8452 17.829C33.3645 17.829 33.9271 17.4828 33.9271 16.877C33.9271 16.401 33.5809 16.0548 33.0616 16.0548C32.7154 16.0548 32.3259 16.2279 31.8932 16.2279C31.4605 16.2279 31.1575 15.9682 31.1575 14.1074V1.34151C31.1575 0.432746 31.071 0.043277 30.4651 0.043277C29.9891 0.043277 29.7728 0.302926 29.0804 0.302926C28.5611 0.302926 28.1716 0.043277 27.3927 0.043277C26.7868 0.043277 26.2243 0.389464 26.2243 0.995305C26.2243 1.47132 26.5704 1.81753 27.0897 1.81753C27.6523 1.81753 28.0418 1.64442 28.4745 1.64442C28.8207 1.64442 29.2102 1.68771 29.2102 3.76487L29.2535 14.1074ZM16.6173 9.69345C16.7904 7.57301 18.3483 6.01513 20.512 6.01513C22.7623 6.01513 23.974 7.61628 24.1038 9.69345H16.6173ZM24.9693 11.511C26.181 11.511 26.181 11.4244 26.181 10.1262C26.181 6.7508 23.8442 4.28416 20.4255 4.28416C18.608 4.28416 16.9203 5.0631 15.7519 6.53443C14.67 7.91921 14.2373 9.73673 14.2373 11.4677C14.2373 15.2326 16.2712 18.1752 20.2524 18.1752C21.6804 18.1752 23.3249 17.6992 24.3635 16.7039C25.0991 16.0115 25.8781 14.8431 25.8781 13.8045C25.8781 13.242 25.402 12.8525 24.8828 12.8525C24.1904 12.8525 24.0605 13.415 23.9307 13.9776C23.4547 15.622 22.1565 16.4875 20.4255 16.4875C17.6559 16.4875 16.2279 14.1507 16.3577 11.5543L24.9693 11.511ZM5.84204 6.01513C7.09699 6.01513 8.13558 6.44788 8.87124 7.44319C9.60691 8.43851 9.69345 9.90983 9.69345 11.1215C9.69345 12.3332 9.6069 13.6747 9.13089 14.7133C8.56832 15.925 7.31336 16.4443 6.01513 16.4443C3.2023 16.4443 2.07716 13.7612 2.07716 11.2946C2.07716 8.82797 2.94266 6.01513 5.84204 6.01513ZM11.6841 1.08186C11.6841 0.216372 11.511 0 11.2513 0C10.732 0 10.3858 0.259649 9.73673 0.259649C9.04434 0.259649 8.65487 0 7.9192 0C7.44318 0 6.96717 0.389475 6.96717 0.952041C6.96717 1.42806 7.31336 1.77425 7.83265 1.77425C8.17885 1.77425 8.56832 1.60116 9.00106 1.60116C9.47708 1.60116 9.73673 1.8608 9.73673 3.7216V6.18823H9.69345C8.82797 4.80345 7.35664 4.28416 5.75548 4.28416C1.81752 4.28416 0 7.57301 0 11.1648C0 14.8431 1.86079 18.1752 5.88531 18.1752C7.39991 18.1752 9.00106 17.6559 9.78 16.3577H9.82328V16.6174C9.82328 17.5694 10.0396 17.829 10.6888 17.829C11.2946 17.829 11.511 17.5694 12.0735 17.5694C12.6361 17.5694 13.1121 17.829 13.5881 17.829C14.0209 17.829 14.4104 17.4828 14.4104 16.877C14.4104 16.401 14.0642 16.0548 13.5449 16.0548C13.1987 16.0548 12.8092 16.2279 12.3765 16.2279C11.8572 16.2279 11.6408 15.8384 11.6408 14.1074L11.6841 1.08186Z" fill="black"></path></svg> 