<?xml version="1.0" encoding="UTF-8"?> <svg xmlns="http://www.w3.org/2000/svg" width="100" height="25" viewBox="0 0 100 25" fill="none"><g opacity="0.5"><path d="M88.7441 14.0475C89.9261 14.0475 90.669 13.1695 90.669 12.0551C90.669 10.9407 89.9261 10.0627 88.7441 10.0627C87.5622 10.0627 86.8193 10.9407 86.8193 12.0551C86.8193 13.1695 87.5622 14.0475 88.7441 14.0475Z" fill="#585858"></path><path d="M99.9217 14.8243C99.8204 14.8243 99.6853 14.8243 99.6853 14.7568C99.6177 13.8788 99.8204 13.1359 99.6177 12.1903H99.5502C99.584 11.6838 99.4151 11.515 99.3814 11.2786C99.1787 10.4681 98.9086 9.99538 98.706 9.28624C98.5034 9.28624 98.8073 9.01609 98.706 8.94855C98.5709 9.08362 98.1657 8.91478 98.3683 9.01609C98.1319 9.32 98.1995 8.64463 98.1995 8.44202C98.4358 8.54332 98.6385 8.91478 98.8411 8.88101C99.0437 8.84724 99.6177 8.20564 99.5164 8.00302C99.4489 7.80041 99.0099 8.27317 98.6722 8.57709C98.4358 8.54332 98.4358 8.07056 98.5034 7.90172C98.5709 7.76664 98.0981 7.69911 97.7605 7.73287C97.4565 7.0575 96.6799 6.82112 96.2746 6.24705C96.2071 6.24705 96.1733 6.17951 96.1058 6.17951C96.1058 6.11198 96.0383 6.11198 96.0383 6.01067C95.8694 5.70675 95.633 6.04444 95.5317 5.94313C95.633 5.90936 95.7006 5.84183 95.7006 5.70675C94.9239 4.76123 93.8095 4.28847 92.7965 3.95078C92.8302 3.88324 92.9315 3.7144 92.864 3.7144C92.5601 3.78194 92.5601 3.54555 92.2899 3.54555C92.1549 3.61309 92.1549 3.8157 91.9522 3.78194C91.7496 3.57932 92.0873 3.61309 92.0198 3.37671C91.8509 3.07279 91.3444 3.57932 91.3444 3.20787C91.0743 3.07279 90.1963 3.03902 90.0274 3.27541C89.9261 3.27541 89.791 3.27541 89.791 3.34294C88.8455 3.74817 87.3935 3.64686 86.3129 3.91701C86.5155 3.8157 87.022 3.68063 87.0558 3.57932C86.7519 3.14033 86.0427 3.7144 86.144 3.98455C85.0297 4.01832 84.4556 4.99761 83.5776 4.72746C83.5101 4.69369 83.4425 4.69369 83.3412 4.59238C83.2399 4.49108 83.2399 4.2547 83.1724 4.32224C83.0711 4.42354 83.1048 4.69369 83.1048 4.8963C83.0373 5.20022 82.5308 5.40283 82.5308 5.40283C82.5308 5.40283 82.3282 5.50414 82.1931 5.40283V5.3353C82.1931 5.3353 82.1931 5.23399 82.1255 5.16645C81.8554 5.16645 81.5852 5.57168 81.7879 5.74052C82.0242 5.94313 81.619 6.24705 81.5515 6.41589C81.2138 6.44966 81.4839 6.04444 81.4839 5.90936C81.3151 5.94313 81.3151 5.80806 81.1463 5.84183C81.1463 5.94313 81.0112 5.8756 80.9774 6.01067C80.9436 6.14575 80.9774 6.58474 80.8086 6.75358C80.5047 6.88866 80.2683 7.0575 80.302 7.49649C80.2007 7.69911 79.5254 7.76664 79.728 8.00302C79.8293 8.23941 80.1332 8.30694 80.1332 8.6784C80.5384 8.88101 80.0657 9.35377 79.9644 9.59015C79.9306 9.69146 79.863 9.759 79.728 9.759C79.4578 10.7383 79.3565 11.8864 78.8162 12.5618C78.6136 13.406 78.4448 14.6555 78.6474 15.6348C78.9175 17.3232 79.5591 18.6402 80.302 19.8558C80.741 20.4299 81.1125 21.1053 81.7879 21.443H81.8554C81.9229 21.6118 82.2269 21.578 82.3619 21.6793H82.4295C82.6321 21.8144 82.6659 22.1521 82.936 22.2534V22.321C83.5101 22.6249 83.9491 23.0639 84.692 23.2327C84.9284 23.3002 85.1647 23.3678 85.266 23.5704C86.144 23.8068 86.5155 24.5159 87.6636 24.2458H88.7442C89.217 24.2795 89.5884 24.212 89.9937 24.1782C90.0274 24.2795 90.0274 24.7185 90.0612 24.8536C90.1287 24.9549 90.5677 24.8536 90.5677 24.8536C90.7703 24.8874 90.7366 24.7185 90.9729 24.7861C90.9392 24.9211 91.0405 24.9549 91.1418 24.9549H91.3782C91.547 24.9549 92.0536 24.7861 92.2224 24.7861C92.6952 24.5159 93.0666 24.7523 93.5394 24.8536C93.5731 24.8198 93.4718 24.6848 93.4718 24.6172C93.4381 24.3471 93.8095 24.212 94.0459 24.1107C94.0459 24.0432 94.1472 24.0432 94.2147 24.0432C94.2485 23.9081 94.1472 23.8743 94.0459 23.8743C94.0121 23.7055 94.4174 23.7392 94.2823 23.9419C94.3498 23.9419 94.3836 23.9419 94.4174 23.9081C94.62 23.8405 94.6537 23.6042 94.9577 23.6042C95.5317 23.4353 95.8694 23.0976 96.2746 22.76C96.3759 22.6586 96.3422 22.5911 96.2071 22.5911C96.2409 22.4898 96.3759 22.5236 96.3759 22.5911C96.6123 22.5911 96.4773 22.1859 96.6123 22.0846C96.7474 22.1183 96.5786 22.1859 96.6123 22.321C96.8487 22.321 96.8825 21.7469 97.1864 21.8144L97.1526 21.7807C97.2877 21.7131 97.389 21.578 97.5241 21.5105C97.7605 21.3417 97.9968 21.1391 98.0981 20.8351C97.7605 20.8014 98.4358 20.7001 98.0981 20.6663C98.4021 20.5312 98.5034 20.1935 98.7735 19.9909C99.7528 18.6739 100.192 16.8842 99.9217 14.8243ZM81.5853 14.3515C81.4164 14.3515 81.2813 14.2165 81.2813 14.0476C81.2813 13.8788 81.4164 13.7437 81.5853 13.7437C81.7541 13.7437 81.8892 13.8788 81.8892 14.0476C81.8892 14.2165 81.7541 14.3515 81.5853 14.3515ZM91.6146 19.1805C92.6614 19.1805 92.8302 18.2687 92.8302 17.5933V14.8918H93.2692V17.6946C93.2692 18.6739 92.864 19.5519 91.6146 19.5519C90.3651 19.5519 89.9599 18.6739 89.9599 17.6946V14.8918H90.3989V17.5933C90.3989 18.2687 90.5677 19.1805 91.6146 19.1805ZM88.7442 9.65769C90.1287 9.65769 91.0743 10.6708 91.0743 12.0553C91.0743 13.4398 90.1287 14.4528 88.7442 14.4528C87.3597 14.4528 86.4142 13.4398 86.4142 12.0553C86.4142 10.6708 87.3597 9.65769 88.7442 9.65769ZM84.692 19.4844C84.5231 19.4844 84.3881 19.3493 84.3881 19.1805C84.3881 19.0116 84.5231 18.8765 84.692 18.8765C84.8608 18.8765 84.9959 19.0116 84.9959 19.1805C84.9959 19.3493 84.8608 19.4844 84.692 19.4844ZM84.5907 14.4191C83.2061 14.4191 82.2606 13.406 82.2606 12.0215C82.2606 10.637 83.2061 9.62392 84.5907 9.62392C85.1985 9.62392 85.7726 9.82653 86.144 10.3331L85.8063 10.637C85.5362 10.198 85.0297 10.0291 84.5907 10.0291C83.4088 10.0291 82.6659 10.9071 82.6659 12.0215C82.6659 13.1359 83.4088 14.0139 84.5907 14.0139C85.0297 14.0139 85.6037 13.8112 85.9414 13.3047L86.2791 13.5749C85.8401 14.1827 85.2323 14.4191 84.5907 14.4191ZM89.3183 19.4506L88.8118 18.2349H86.4142L85.9076 19.4506H85.4687L87.461 14.9256H87.9L89.8248 19.4506H89.3183ZM89.8924 23.1314C90.0274 23.0301 90.3651 23.1314 90.3989 23.3678C90.23 23.5029 89.8248 23.4691 89.8924 23.1314ZM92.9653 23.4353C92.7289 23.4016 92.3912 23.5366 92.2899 23.3678C92.2224 23.2665 92.1886 23.0976 92.1549 23.1652C92.2224 23.5704 92.2899 23.8068 91.9185 24.1445C91.7834 24.0094 91.8847 23.773 91.986 23.6379C92.0198 23.7392 92.1211 23.8405 92.1549 23.7055C91.986 23.7055 92.0536 23.334 91.9185 23.4691C91.6146 23.9419 91.3106 24.1445 91.0067 24.3808C90.8041 24.1445 90.4664 24.0769 90.2638 24.3808C90.1625 24.2458 90.1625 24.1782 90.2638 24.0432C91.0067 23.4016 92.0535 23.0976 92.9991 22.6249C93.1004 23.0976 92.864 23.1989 92.9653 23.4353ZM93.303 23.1314C93.1679 22.9288 93.2355 22.9963 93.0666 22.6249C93.2355 22.5911 93.2692 22.456 93.4718 22.456C93.5731 22.456 93.6744 22.4898 93.6407 22.6249C93.4718 22.7599 93.3705 22.9288 93.303 23.1314ZM93.6407 23.773C93.6407 23.8405 93.6744 23.8405 93.7082 23.8405C93.5056 24.0769 93.5394 23.4353 93.8771 23.5029C93.8433 23.5704 93.7758 23.6379 93.8095 23.7392C93.8771 23.7392 93.8771 23.7055 93.8771 23.6717C94.0459 23.8068 93.8095 23.8743 93.6407 23.773ZM96.3422 14.3178H95.9032V10.2993L94.181 14.284H94.0121L92.2562 10.2993V14.284H91.8172V9.759H92.4588L94.1134 13.5749L95.7681 9.759H96.3759V14.3178H96.3422ZM97.9631 8.61086C97.828 8.84724 97.828 8.00302 97.9631 7.93549C98.0982 8.00302 97.9631 8.07056 97.9631 8.17187C98.0306 8.17187 98.0306 8.1381 98.0306 8.10433C98.2332 8.17187 97.828 8.34071 97.9631 8.61086ZM98.4358 16.7154V16.8842C98.1657 16.918 98.4021 16.479 98.0981 16.5465C98.0981 16.4452 98.1995 16.4452 98.1657 16.3101C98.3008 16.3101 98.2332 16.5127 98.4021 16.479C98.4021 16.614 98.3345 16.614 98.4358 16.7154ZM99.1112 17.6271C99.0774 17.7622 98.9761 17.8297 98.7735 17.7959C98.7735 17.6946 98.9086 17.7284 99.0099 17.7284C99.0099 17.6271 98.8748 17.6609 98.7735 17.6609C98.7398 17.4583 99.1112 17.5933 99.0099 17.3232C99.3138 17.3232 98.8748 17.6609 99.1112 17.6271Z" fill="#585858"></path><path d="M86.5828 17.8635H88.6764L87.6296 15.3646L86.5828 17.8635Z" fill="#585858"></path></g><path d="M13.6426 9.52278H8.88117V15.3648C8.88117 17.2558 9.08378 18.6066 11.4476 18.6066C12.0217 18.6066 13.1698 18.539 13.6426 18.1V22.625C12.4607 23.064 11.1099 23.1653 9.86046 23.1653C6.24721 23.1653 3.47818 21.6795 3.47818 17.8636V9.52278H0V5.20038H3.47818V0H8.88117V5.20038H13.6426V9.52278Z" fill="#585858"></path><path d="M25.8331 20.5653H25.7656C24.5837 22.4563 22.4225 23.1992 20.1937 23.1992C16.9182 23.1992 13.9465 21.3082 13.9465 17.7962C13.9465 11.7179 21.3081 11.6166 25.8331 11.6166C25.8331 9.69175 24.246 8.47608 22.3549 8.47608C20.599 8.47608 19.1131 9.28653 17.965 10.5697L15.0609 7.59809C17.0533 5.70704 19.9236 4.79529 22.7939 4.79529C29.1087 4.79529 30.7971 8.00332 30.7971 13.8453V22.7602H25.8331V20.5653ZM24.4824 15.061C22.8277 15.061 19.1469 15.1961 19.1469 17.5936C19.1469 18.8768 20.5314 19.5184 21.7133 19.5184C23.8408 19.5184 25.8331 18.4041 25.8331 16.2429V15.0947H24.4824V15.061Z" fill="#585858"></path><path d="M42.211 10.3671C41.4006 9.38783 40.3538 8.8813 39.0705 8.8813C38.1588 8.8813 37.0782 9.28653 37.0782 10.3334C37.0782 12.9335 46.2295 10.7386 46.2295 17.4248C46.2295 21.916 41.9071 23.1992 38.125 23.1992C35.6599 23.1992 32.9584 22.5914 31.2362 20.8017L34.5118 17.1546C35.5248 18.3703 36.7067 19.0795 38.3276 19.0795C39.5433 19.0795 40.7928 18.7418 40.7928 17.83C40.7928 15.0272 31.6414 17.391 31.6414 10.7048C31.6414 6.58503 35.3222 4.79529 39.003 4.79529C41.2993 4.79529 43.8657 5.36936 45.4866 7.09156L42.211 10.3671Z" fill="#585858"></path><path d="M59.5002 9.52278H54.7388V15.3648C54.7388 17.2558 54.9414 18.6066 57.3053 18.6066C57.8793 18.6066 59.0275 18.539 59.5002 18.1V22.625C58.3183 23.064 56.9676 23.1653 55.7181 23.1653C52.1049 23.1653 49.3358 21.6795 49.3358 17.8636V9.52278H45.8577V5.20038H49.3358V0H54.7388V5.20038H59.5002V9.52278Z" fill="#585858"></path><path d="M76.5203 19.7213C74.7981 21.9162 71.9278 23.1994 69.125 23.1994C63.722 23.1994 59.3658 19.5862 59.3658 13.9806C59.3658 8.37497 63.6882 4.76172 69.125 4.76172C74.1903 4.76172 77.3646 8.37497 77.3646 13.9806V15.669H64.8026C65.2416 17.7289 66.795 19.0797 68.8886 19.0797C70.6446 19.0797 71.8603 18.1679 72.7382 16.9522L76.5203 19.7213ZM71.9278 11.9882C71.9616 10.1985 70.5433 8.67889 68.6185 8.67889C66.2209 8.67889 64.9377 10.2998 64.8026 11.9882H71.9278Z" fill="#585858"></path></svg> 