<?xml version="1.0" encoding="UTF-8"?> <svg xmlns="http://www.w3.org/2000/svg" width="100" height="40" viewBox="0 0 100 40" fill="none"><path d="M38.8397 35.3295L42.4876 34.4978C42.5891 35.9746 43.5126 36.6655 44.7602 36.6655C45.664 36.6655 46.2206 36.23 46.2206 35.4572C46.2206 34.4421 44.9174 34.0622 43.4013 33.5449C41.4889 32.9063 39.3473 32.1139 39.3473 29.6088C39.3473 27.1037 41.3972 25.5254 44.328 25.5254C46.7119 25.5254 49.3088 26.4652 49.8718 29.2748L46.4793 30.1065C46.296 28.8786 45.6476 28.3415 44.5572 28.3415C43.5879 28.3415 42.9035 28.7214 42.9035 29.5171C42.9035 30.3128 44.1151 30.5781 45.5166 31.03C47.465 31.6783 49.8685 32.5625 49.8685 35.2509C49.8685 38.2374 47.357 39.4817 44.6128 39.4817C41.6395 39.4817 39.2163 38.0507 38.8397 35.3263" fill="black"></path><path d="M63.2586 25.7216V39.298H59.7386V34.0063H54.7215V39.298H51.2015V25.7216H54.7215V30.9773H59.7386V25.7216H63.2586Z" fill="black"></path><path d="M64.565 32.5101C64.565 28.2892 67.522 25.5254 71.6253 25.5254C75.7285 25.5254 78.6821 28.2892 78.6821 32.5101C78.6821 36.731 75.7348 39.485 71.6253 39.485C67.5158 39.485 64.565 36.7049 64.565 32.5101ZM75.1977 32.5101C75.1977 30.1818 73.6718 28.7214 71.6219 28.7214C69.572 28.7214 68.0658 30.1786 68.0658 32.5101C68.0658 34.8416 69.5821 36.289 71.6219 36.289C73.6622 36.289 75.1977 34.8383 75.1977 32.5101Z" fill="black"></path><path d="M78.5474 25.7216H82.1954L84.4879 35.4209L87.2876 25.7216H90.2147L93.0048 35.4209L95.3069 25.7216H98.9645L95.6278 39.298H90.9746L88.748 32.2249L86.5277 39.298H81.8745L78.5474 25.7216Z" fill="black"></path><path d="M12.7839 1.52924H11.2514V6.78826H9.50929V1.52924H7.96698V0H12.7839V1.52924Z" fill="black"></path><path d="M19.392 0V6.78826H17.6303V4.14236H15.1219V6.78826H13.3635V0H15.1219V2.62623H17.6303V0H19.392Z" fill="black"></path><path d="M22.156 1.52924V2.63605H24.2648V4.15219H22.156V5.24589H24.5202V6.78826H20.3942V0H24.5202V1.52924H22.156Z" fill="black"></path><path d="M23.8781 9.37317V22.9529H20.3579V13.152L17.4107 22.9529H15.0825L12.1256 13.0964V22.9529H8.60535V9.37317H14.1132L16.2286 16.7279L18.3899 9.37317H23.8781Z" fill="black"></path><path d="M25.1851 16.1634C25.1851 11.9392 28.1421 9.17871 32.2452 9.17871C36.3482 9.17871 39.3019 11.9392 39.3019 16.1634C39.3019 20.3876 36.3548 23.1383 32.2452 23.1383C28.1355 23.1383 25.1851 20.3582 25.1851 16.1634ZM35.8177 16.1634C35.8177 13.8351 34.2918 12.3747 32.2419 12.3747C30.192 12.3747 28.6857 13.8319 28.6857 16.1634C28.6857 18.4949 30.2018 19.9423 32.2419 19.9423C34.282 19.9423 35.8177 18.4916 35.8177 16.1634Z" fill="black"></path><path d="M44.4623 17.8642H44.3706V22.9562H40.8504V9.37317H46.0701C50.1798 9.37317 51.3063 11.22 51.3063 13.7218C51.3063 15.644 50.0782 17.2879 47.999 17.743L52.0825 22.9529H47.907L44.4623 17.8609V17.8642ZM44.3706 12.2843V15.441H46.2174C47.4749 15.441 47.9629 14.8516 47.9629 13.8528C47.9629 12.9097 47.4717 12.281 46.2174 12.281H44.3706V12.2843Z" fill="black"></path><path d="M65.1314 9.37317V22.9529H60.9464L56.539 14.4258V22.9529H53.0219V9.37317H57.1679L61.6114 17.7987V9.37317H65.1314Z" fill="black"></path><path d="M70.6625 9.37317H67.1425V22.9529H70.6625V9.37317Z" fill="black"></path><path d="M84.7756 9.37317V22.9529H80.591L76.1832 14.4258V22.9529H72.6665V9.37317H76.8121L81.2556 17.7987V9.37317H84.7756Z" fill="black"></path><path d="M99.9964 16.3273C99.9964 20.5678 97.4912 23.1351 92.9366 23.1351C88.9445 23.1351 86.0828 20.355 86.0828 16.1963C86.0828 12.0376 89.0398 9.17554 93.1396 9.17554C95.8638 9.17554 98.0643 10.3838 99.2563 12.3879L96.1717 14.0318C95.5726 12.7841 94.4885 12.1849 93.1425 12.1849C91.1027 12.1849 89.6062 13.5995 89.6062 16.1013C89.6062 18.4459 90.9357 20.1291 93.2835 20.1291C94.5866 20.1291 96.0279 19.6019 96.4633 18.0693H93.3033V15.2892H99.9439C99.98 15.6396 99.9997 15.9834 99.9997 16.324" fill="black"></path><path d="M18.7011 22.1514C8.88063 22.1514 0.825196 29.6894 0 39.3003H0.772849C1.73231 33.8416 6.49682 29.6928 12.2306 29.6928C17.9644 29.6928 22.7257 33.8416 23.6884 39.3003H37.3991C36.5772 29.6927 28.5217 22.1514 18.7011 22.1514Z" fill="#585858" fill-opacity="0.3"></path><path d="M16.4678 24.899C8.82486 24.899 2.41684 30.2117 0.75299 37.3492C0.563409 38.1625 0.468129 38.6295 0.363342 39.3008H0.769396C1.72885 33.842 6.49338 29.6932 12.2272 29.6932C17.961 29.6932 22.7223 33.842 23.6849 39.3008H32.5166C31.6488 31.2027 24.795 24.899 16.4678 24.899Z" fill="#505050" fill-opacity="0.7"></path></svg> 