<?xml version="1.0" encoding="UTF-8"?> <svg xmlns="http://www.w3.org/2000/svg" width="36" height="28" viewBox="0 0 36 28" fill="none"><path d="M17 3.3125C16.875 3.25 16.8125 3.25 16.6875 3.1875C16.3125 3.0625 15.8125 2.875 15.125 2.6875C13.8125 2.375 12 2 10 2C7.25 2 5 2.5625 3.375 3.125C2.8125 3.375 2.375 3.5625 2 3.75V24.5C2.25 24.4375 2.5 24.375 2.75 24.3125C4.625 23.9375 7.0625 23.5 9 23.5C11.8125 23.5625 14.25 24.25 16.0625 24.9375C16.375 25.0625 16.6875 25.1875 17 25.3125V3.3125ZM19 25.3125C19.25 25.1875 19.5625 25.0625 19.875 24.9375C21.6875 24.25 24.125 23.5625 26.9375 23.5625C28.9375 23.5 31.375 23.9375 33.1875 24.3125C33.4375 24.375 33.6875 24.4375 34 24.5V3.75C33.625 3.5625 33.125 3.375 32.5625 3.1875C30.9375 2.625 28.6875 2 26 2C24.1875 2 22.375 2.375 20.9375 2.6875C20.25 2.875 19.6875 3.0625 19.25 3.1875C19.1875 3.25 19.0625 3.25 19 3.3125V25.3125ZM26 0C32 0 36 2.5 36 2.5V24.9375V27C36 27 35.1875 26.8125 34 26.5C32.0625 26.0625 29.125 25.5 27 25.5C22 25.625 18 28 18 28C18 28 13.9375 25.625 9 25.5C6.8125 25.5 3.875 26.0625 2 26.5C0.75 26.8125 0 27 0 27V24.9375V2.5C0 2.5 4 0 10 0C14.5 0 18 1.5 18 1.5C18 1.5 22 0 26 0Z" fill="#C9AB62"></path></svg> 