<?xml version="1.0" encoding="UTF-8"?> <svg xmlns="http://www.w3.org/2000/svg" width="34" height="32" viewBox="0 0 34 32" fill="none"><path d="M17 2C11.9375 2 7.375 4.6875 4.875 9C2.3125 13.375 2.3125 18.6875 4.875 23C7.375 27.375 11.9375 30 17 30C22 30 26.5625 27.375 29.0625 23C31.625 18.6875 31.625 13.375 29.0625 9C26.5625 4.6875 22 2 17 2ZM17 32C11.25 32 6 29 3.125 24C0.25 19.0625 0.25 13 3.125 8C6 3.0625 11.25 0 17 0C22.6875 0 27.9375 3.0625 30.8125 8C33.6875 13 33.6875 19.0625 30.8125 24C27.9375 29 22.6875 32 17 32ZM19 12H11V20H19V18.5V13.5V12ZM21 12.75L25 11.25L27 10.5V12.6875V19.375V21.5L25 20.75L21 19.25V20V22H19H11H9V20V12V10H11H19H21V12V12.75ZM21 14.9375V17.125L25 18.625V13.4375L21 14.9375Z" fill="#C9AB62"></path></svg> 