<?xml version="1.0" encoding="UTF-8"?> <svg xmlns="http://www.w3.org/2000/svg" width="123" height="123" viewBox="0 0 123 123" fill="none"><path d="M16.0746 71.0215L16.3855 73.1079L5.02944 70.9176L4.66976 68.5047L14.8926 63.0925L15.2036 65.1788L7.05608 69.3392L7.06865 69.4235L16.0746 71.0215ZM11.8337 71.5837L10.9856 65.8937L12.5556 65.6597L13.4038 71.3496L11.8337 71.5837Z" fill="#C9AB62"></path><path d="M8.41915 39.1324L18.8171 42.4326L18.2853 44.108L9.64774 46.7595L9.62035 46.8458L16.7029 49.0937L16.1051 50.9774L5.70716 47.6772L6.24214 45.9916L14.8832 43.3468L14.9122 43.2554L7.82454 41.0059L8.41915 39.1324Z" fill="#C9AB62"></path><path d="M20.109 40.1038L10.7241 34.5421L14.3414 28.4383L15.7666 29.2828L13.1568 33.6866L15.7046 35.1965L18.127 31.109L19.5522 31.9535L17.1298 36.0411L19.6914 37.5591L22.3229 33.1188L23.748 33.9633L20.109 40.1038Z" fill="#C9AB62"></path><path d="M25.4691 31.7845L15.4546 26.4743L16.9229 24.9376L24.077 29.0546L24.1469 28.9814L19.8005 21.9259L21.1363 20.5278L28.3899 24.5484L28.4561 24.4791L24.0139 17.5161L25.4822 15.9794L31.2427 25.7418L29.8959 27.1514L22.8528 23.4425L22.794 23.5041L26.8159 30.3749L25.4691 31.7845Z" fill="#C9AB62"></path><path d="M48.0747 8.98431L46.2053 9.67278C46.0391 9.38584 45.8407 9.15045 45.6103 8.96663C45.3787 8.77947 45.1255 8.64185 44.8509 8.55378C44.5763 8.4657 44.287 8.43032 43.983 8.44765C43.6812 8.46041 43.3737 8.52447 43.0604 8.63983C42.5039 8.84477 42.0623 9.16636 41.7355 9.60459C41.4075 10.0395 41.2206 10.57 41.175 11.1961C41.1281 11.8188 41.2463 12.5151 41.5298 13.2849C41.8182 14.068 42.1828 14.683 42.6237 15.1299C43.0666 15.5723 43.5517 15.8515 44.0789 15.9677C44.6081 16.0793 45.1494 16.0333 45.7025 15.8295C46.0091 15.7166 46.281 15.5711 46.5181 15.393C46.7573 15.2102 46.9541 14.9996 47.1085 14.7611C47.2662 14.5214 47.3754 14.2579 47.4361 13.9707C47.5002 13.6822 47.5053 13.3775 47.4515 13.0568L49.3246 12.3783C49.4338 12.8906 49.4503 13.403 49.3742 13.9154C49.3013 14.4266 49.1384 14.9142 48.8854 15.3783C48.6313 15.839 48.288 16.253 47.8556 16.6203C47.4221 16.9844 46.9004 17.2787 46.2905 17.5032C45.3908 17.8346 44.511 17.9221 43.6511 17.7657C42.7913 17.6093 42.0133 17.2128 41.3171 16.5761C40.6209 15.9394 40.0704 15.0712 39.6654 13.9715C39.2592 12.8685 39.1168 11.85 39.2383 10.9159C39.3586 9.97853 39.6952 9.17149 40.2483 8.49478C40.8013 7.81806 41.5244 7.31526 42.4175 6.98637C42.9873 6.77651 43.5466 6.66136 44.0953 6.64092C44.6441 6.62047 45.1672 6.69463 45.6645 6.86341C46.1606 7.02886 46.6142 7.28944 47.0253 7.64516C47.4384 7.99632 47.7882 8.44271 48.0747 8.98431Z" fill="#C9AB62"></path><path d="M53.1733 15.4458L51.8109 4.62207L53.7716 4.37528L54.9271 13.5553L59.6942 12.9553L59.9011 14.599L53.1733 15.4458Z" fill="#C9AB62"></path><path d="M63.4517 14.6895L61.3534 14.4738L66.2894 4.01468L68.7163 4.26417L71.4264 15.5094L69.3281 15.2936L67.3164 6.36927L67.2317 6.36055L63.4517 14.6895ZM63.958 10.4417L69.6807 11.03L69.5184 12.609L63.7957 12.0207L63.958 10.4417Z" fill="#C9AB62"></path><path d="M81.2861 10.4665C81.3899 10.0103 81.3091 9.59973 81.0437 9.23478C80.7817 8.87099 80.3736 8.59413 79.8193 8.40421C79.4296 8.27069 79.0752 8.21495 78.756 8.23699C78.4369 8.25903 78.1689 8.34552 77.9521 8.49643C77.7352 8.64735 77.5807 8.85158 77.4888 9.1091C77.4151 9.3241 77.3999 9.52724 77.4432 9.71851C77.4899 9.91094 77.5799 10.0919 77.7133 10.2615C77.8478 10.4277 78.0065 10.5834 78.1895 10.7287C78.3724 10.874 78.5611 11.0081 78.7555 11.131L79.6401 11.7044C79.9987 11.9286 80.3313 12.1795 80.6378 12.4572C80.9477 12.7361 81.2051 13.042 81.4101 13.375C81.6184 13.7091 81.7496 14.0713 81.8036 14.4614C81.8576 14.8516 81.8081 15.27 81.655 15.7168C81.4478 16.3215 81.1108 16.801 80.6441 17.1554C80.1785 17.5064 79.6091 17.7111 78.9359 17.7695C78.2673 17.8256 77.5197 17.7122 76.6933 17.429C75.8904 17.1539 75.2359 16.7908 74.7298 16.3396C74.2271 15.8896 73.8912 15.369 73.7221 14.7781C73.5563 14.1882 73.5774 13.546 73.7853 12.8515L75.6246 13.4817C75.5283 13.8504 75.5367 14.1873 75.6498 14.4926C75.763 14.7979 75.9556 15.0628 76.2277 15.2875C76.5032 15.5132 76.8358 15.6929 77.2255 15.8264C77.632 15.9657 78.0088 16.0272 78.356 16.011C78.7076 15.9926 79.0082 15.9042 79.2577 15.7457C79.5084 15.5838 79.686 15.3556 79.7907 15.0612C79.8794 14.7913 79.8764 14.5425 79.7817 14.3148C79.6882 14.0838 79.5222 13.8618 79.2836 13.6487C79.0496 13.4333 78.7639 13.2153 78.4266 12.9947L77.3561 12.29C76.581 11.7805 76.0225 11.2193 75.6806 10.6067C75.3432 9.99185 75.3011 9.31488 75.5543 8.57581C75.7627 7.96776 76.1097 7.49169 76.5955 7.14761C77.0846 6.80469 77.6579 6.60508 78.3153 6.5488C78.9739 6.48916 79.6643 6.58308 80.3866 6.83055C81.119 7.08148 81.7169 7.42899 82.1803 7.87307C82.6483 8.31495 82.9631 8.81507 83.1246 9.37343C83.2873 9.92843 83.2741 10.4982 83.0851 11.0829L81.2861 10.4665Z" fill="#C9AB62"></path><path d="M92.2397 16.2126C92.4438 15.7916 92.4577 15.3733 92.2816 14.9579C92.1085 14.5444 91.7733 14.1826 91.2762 13.8724C90.9267 13.6544 90.594 13.5201 90.2781 13.4696C89.9623 13.419 89.6817 13.4428 89.4363 13.5409C89.191 13.6389 88.9945 13.803 88.8467 14.0332C88.7264 14.226 88.6658 14.4205 88.6648 14.6166C88.6669 14.8146 88.7137 15.0112 88.8054 15.2065C88.8989 15.3988 89.0184 15.5863 89.1638 15.7691C89.3093 15.9519 89.4628 16.1252 89.6244 16.2888L90.3568 17.047C90.6556 17.3464 90.9229 17.6659 91.1589 18.0056C91.3978 18.3472 91.5796 18.7033 91.7041 19.074C91.8316 19.4465 91.8777 19.8289 91.8423 20.2212C91.8068 20.6135 91.6641 21.01 91.4142 21.4107C91.0759 21.953 90.6394 22.3441 90.1047 22.584C89.5719 22.8208 88.971 22.8917 88.302 22.7967C87.6379 22.7005 86.9353 22.4212 86.1941 21.9589C85.474 21.5097 84.9183 21.0082 84.5271 20.4544C84.1389 19.9025 83.9292 19.3197 83.8978 18.7057C83.8694 18.0937 84.0349 17.4728 84.3942 16.8432L86.0438 17.8722C85.8668 18.2096 85.7989 18.5398 85.8402 18.8627C85.8815 19.1857 86.0094 19.4873 86.2238 19.7675C86.4413 20.0496 86.7247 20.2997 87.0742 20.5178C87.4388 20.7452 87.792 20.8902 88.1338 20.9527C88.4806 21.0142 88.7934 20.9958 89.0722 20.8977C89.3529 20.7966 89.5775 20.6144 89.7459 20.3512C89.8933 20.1082 89.9465 19.8652 89.9056 19.6221C89.8667 19.3759 89.755 19.1221 89.5707 18.8607C89.3913 18.5981 89.1622 18.3213 88.8834 18.0301L87.9996 17.1021C87.3595 16.4307 86.942 15.758 86.7472 15.084C86.5573 14.4089 86.6691 13.7399 87.0826 13.0771C87.4228 12.5317 87.8683 12.1462 88.4192 11.9207C88.9731 11.697 89.5766 11.6319 90.2298 11.7255C90.8848 11.816 91.5363 12.0633 92.184 12.4674C92.8409 12.8772 93.3449 13.3506 93.6962 13.8879C94.0524 14.424 94.2461 14.9822 94.2775 15.5626C94.3107 16.14 94.1693 16.6922 93.8532 17.2191L92.2397 16.2126Z" fill="#C9AB62"></path><path d="M99.5074 34.1082L108.763 28.3343L112.518 34.3542L111.113 35.231L108.404 30.8878L105.891 32.4554L108.406 36.4867L107 37.3635L104.485 33.3322L101.959 34.9081L104.691 39.2875L103.285 40.1643L99.5074 34.1082Z" fill="#C9AB62"></path><path d="M115.003 39.9036L107.801 45.3727L107.837 45.4785L116.878 45.3761L117.583 47.4321L106.016 47.3298L105.225 45.0219L114.301 37.8527L115.003 39.9036Z" fill="#C9AB62"></path><path d="M107.583 53.5285L118.435 52.4129L119.16 59.4709L117.512 59.6403L116.989 54.5482L114.043 54.851L114.529 59.5776L112.881 59.747L112.395 55.0205L109.433 55.325L109.961 60.4595L108.313 60.6289L107.583 53.5285Z" fill="#C9AB62"></path><path d="M108.242 63.2826L119.066 64.645L118.555 68.7039C118.45 69.5354 118.218 70.2148 117.858 70.7422C117.498 71.2731 117.039 71.6502 116.481 71.8734C115.926 72.1007 115.304 72.1708 114.613 72.0839C113.919 71.9966 113.335 71.7727 112.861 71.4125C112.391 71.0562 112.052 70.5751 111.846 69.9693C111.643 69.3639 111.594 68.6455 111.698 67.814L112.062 64.9231L113.69 65.128L113.359 67.7546C113.298 68.2408 113.315 68.6474 113.41 68.9743C113.508 69.3017 113.679 69.5557 113.921 69.7365C114.166 69.9213 114.48 70.0379 114.864 70.0862C115.248 70.1345 115.586 70.1 115.876 69.9827C116.17 69.8657 116.407 69.6611 116.587 69.3688C116.77 69.0769 116.893 68.6861 116.955 68.1964L117.181 66.3995L107.995 65.2434L108.242 63.2826ZM112.443 69.4915L107.201 71.5537L107.476 69.3657L112.712 67.351L112.443 69.4915Z" fill="#C9AB62"></path><path d="M117.214 76.4419L116.443 78.5362L110.992 79.3727L110.955 79.4727L114.562 83.6447L113.79 85.7391L108.744 79.6516L104.925 78.2452L105.606 76.3958L109.425 77.8021L117.214 76.4419Z" fill="#C9AB62"></path><path d="M96.4152 92.3264L106.178 98.0869L104.641 99.5552L97.6816 95.1168L97.6084 95.1867L101.629 102.433L100.231 103.769L93.168 99.422L93.0987 99.4883L97.2194 106.646L95.6827 108.114L90.3724 98.1L91.782 96.7532L98.649 100.779L98.7106 100.72L95.0056 93.6732L96.4152 92.3264Z" fill="#C9AB62"></path><path d="M87.9016 99.7317L93.4634 109.117L87.3596 112.734L86.515 111.309L90.9187 108.699L89.4088 106.151L85.3212 108.573L84.4767 107.148L88.5642 104.726L87.0461 102.164L82.6057 104.796L81.7612 103.371L87.9016 99.7317Z" fill="#C9AB62"></path><path d="M78.5383 104.667L81.8385 115.065L75.0757 117.211L74.5746 115.633L79.4537 114.084L78.5578 111.261L74.029 112.698L73.5278 111.119L78.0566 109.682L77.1558 106.844L72.2361 108.405L71.735 106.826L78.5383 104.667Z" fill="#C9AB62"></path><path d="M68.8207 107.321L69.689 118.196L67.7191 118.353L67.3201 113.357L67.1874 113.367L63.3438 118.702L60.9385 118.894L64.7542 113.679L60.033 108.023L62.4012 107.834L66.0177 112.237L67.1094 110.718L66.8508 107.479L68.8207 107.321Z" fill="#C9AB62"></path><path d="M52.1428 117.877L53.4523 110.285L55.1487 110.537L54.1817 118.181L52.1428 117.877ZM54.7905 107.123C55.1102 107.171 55.3674 107.324 55.5622 107.583C55.7535 107.841 55.825 108.132 55.7768 108.455C55.7297 108.771 55.577 109.025 55.3187 109.216C55.0569 109.407 54.7662 109.479 54.4466 109.431C54.134 109.384 53.8803 109.232 53.6855 108.973C53.4872 108.714 53.4116 108.426 53.4587 108.11C53.4906 107.895 53.5741 107.709 53.7092 107.549C53.8408 107.389 54.0022 107.27 54.1935 107.191C54.3808 107.114 54.5798 107.092 54.7905 107.123Z" fill="#C9AB62"></path></svg> 