<?xml version="1.0" encoding="UTF-8"?> <svg xmlns="http://www.w3.org/2000/svg" width="58" height="100" viewBox="0 0 58 100" fill="none"><mask id="mask0_2_299" style="mask-type:luminance" maskUnits="userSpaceOnUse" x="0" y="0" width="58" height="100"><path d="M57.2372 0H0V99.6675H57.2372V0Z" fill="white"></path></mask><g mask="url(#mask0_2_299)"><path d="M25.0705 37.5829C25.7142 37.0576 26.506 36.6654 27.357 36.4582C28.1858 36.2584 29.0589 36.2436 29.8877 36.4138C30.6499 36.5618 31.3973 36.8726 32.1224 37.3462C33.3508 38.1601 34.2536 39.2997 34.8826 40.824C35.0158 41.1496 35.0972 41.4974 35.1194 41.8378C35.1194 41.897 35.149 41.9488 35.1934 41.9784C35.2229 42.0006 35.2673 42.0228 35.3265 42.0228L38.5232 41.6676C38.6416 41.6602 38.6934 41.6306 38.7082 41.601C38.723 41.5714 38.7304 41.527 38.7156 41.49L38.5972 40.9646C38.5084 40.5577 38.2865 39.8769 38.2569 39.8029L38.1311 39.4921C37.6501 38.4339 36.9915 37.4867 36.1701 36.695C35.9333 36.473 35.7483 36.2954 35.5411 36.1474L35.3561 36.0068C35.1712 35.8588 35.0158 35.7404 34.8456 35.6442C34.372 35.3408 33.8614 35.0744 33.3138 34.8524C31.3233 34.0533 29.0293 33.9793 26.8612 34.6526C25.877 34.9486 24.9003 35.4222 23.9605 36.0512C22.9615 36.7172 22.1476 37.4276 21.4668 38.2267C20.7046 39.1221 20.12 40.1507 19.787 41.1866C19.4096 42.341 19.2468 43.5398 19.2838 44.7459L19.306 45.2269C19.306 45.3009 19.3282 45.3897 19.343 45.5081L19.3874 45.8263C19.4244 46.0705 19.4614 46.3073 19.528 46.5293L19.8832 47.6244C19.9794 47.8612 20.0756 48.1054 20.1718 48.3126C20.6528 49.319 21.2448 50.2957 21.9108 51.1911C23.0059 52.6785 24.3749 54.0696 26.1064 55.4608L26.4098 55.705V55.7198L26.5282 55.8308C26.9574 56.1934 27.3422 56.4746 27.7196 56.7409L27.8528 56.8371C28.3338 57.1775 28.7999 57.4809 29.2291 57.7473L31.8783 59.3605C38.5676 63.3859 42.0751 65.7761 42.4303 71.9993C42.4673 73.9084 42.0381 75.7731 41.1872 77.4159C40.5952 78.5629 39.8034 79.6284 38.8266 80.5608C37.3467 81.7596 35.7557 82.6253 34.0686 83.1655C32.6774 83.6021 31.2345 83.7871 29.7397 83.7945H29.6361C29.2735 83.7797 28.9109 83.7723 28.5558 83.7279L28.4522 83.7131C28.0156 83.6613 27.616 83.5947 27.2164 83.5207C25.9658 83.2617 24.7745 82.8325 23.6867 82.2553C22.1846 81.4414 20.8452 80.3536 19.713 79.0142C18.6475 77.7267 17.8409 76.2467 17.2933 74.604C16.7975 73.0796 16.6199 71.4517 16.7309 69.6165C16.9751 66.1682 18.2701 62.683 20.379 59.797C21.3262 58.4947 22.4435 57.4069 23.7015 56.5485C23.8273 56.4598 23.8569 56.334 23.8569 56.2674C23.8643 56.1342 23.8125 56.0084 23.7089 55.9196C23.1021 55.3794 22.5249 54.817 21.9922 54.2472C21.9108 54.1584 21.7924 54.1066 21.6814 54.1066C21.6148 54.1066 21.5482 54.1214 21.489 54.1584C20.0312 55.002 18.6845 56.075 17.4857 57.3551C15.9983 58.9239 14.77 60.759 13.8228 62.8236C12.8608 64.8807 12.2837 67.0488 12.0987 69.2613C11.6843 73.8788 13.3714 78.7183 16.5015 81.9076C19.5798 85.1931 24.1011 87.0726 28.6372 86.9098C30.6795 86.8654 32.7736 86.3918 34.6902 85.5334L35.001 85.4076C35.6003 85.1635 36.1035 84.9267 36.5549 84.6825C39.352 83.1655 41.5719 81.101 43.1703 78.5555C44.3543 76.6907 45.1756 74.5374 45.5456 72.3249C45.8638 70.5045 45.8712 68.6472 45.5752 66.8046C45.5456 66.331 45.4494 65.8723 45.3088 65.4431C45.1164 64.6957 44.8796 63.9557 44.5763 63.2305C44.1249 61.9948 43.4219 60.4778 41.6015 58.4947C41.1724 58.0063 39.87 56.7927 39.8552 56.7853C37.1543 54.5062 31.3603 51.3021 31.3011 51.2725C31.0791 51.1541 30.8497 51.0357 30.6647 50.9247L30.4353 50.7989L30.3169 50.7249C29.9839 50.5103 27.0906 48.6604 26.0842 47.6984C25.5145 47.1582 24.9965 46.5515 24.5377 45.9003C24.0419 45.1973 23.7163 44.5905 23.4499 43.8801C23.2649 43.377 23.1687 42.8812 23.1613 42.415C23.1539 41.3938 23.3019 40.4689 23.6127 39.6623C23.9161 38.8557 24.4193 38.1379 25.0779 37.6051" fill="#C9AB62"></path><path d="M57.2299 60.4043C56.5195 57.3482 55.4909 54.2329 54.1368 51.0806C51.5913 45.109 48.2688 39.5444 45.0721 34.3497C44.3987 33.2472 43.7179 32.152 43.0445 31.0642C40.4842 26.9352 37.8351 22.6581 35.6596 18.3144C32.707 12.4168 31.1383 7.15558 30.8719 2.24953C30.8571 2.08673 30.8349 1.82034 30.8275 1.63535C30.8275 1.56875 30.8275 1.50215 30.8127 1.44295C30.8127 1.43556 30.8127 1.42816 30.8127 1.42816C30.7091 0.62158 30.0283 0 29.1996 0C28.2968 0 27.5716 0.732577 27.5716 1.62795C27.5716 1.62795 27.5716 1.63535 27.5716 1.64275C27.5716 1.65755 27.5716 1.66495 27.5716 1.67975C27.5716 1.68715 27.5716 1.70195 27.5716 1.70935C27.394 6.77079 25.8179 12.2022 22.7544 18.3144C20.5788 22.6581 17.9297 26.9352 15.3694 31.0642C14.696 32.152 14.0152 33.2472 13.3419 34.3497C10.1526 39.537 6.82266 45.109 4.27714 51.0806C1.47263 57.6294 0.0296721 64.0006 7.30282e-05 70.0166C-0.00732674 73.4575 0.547656 76.7874 1.65022 79.9249C2.77499 83.1142 4.41773 86.0741 6.53407 88.7232C10.7963 94.0363 16.9899 97.8175 23.5165 99.1051C26.7206 99.7637 30.1245 99.8451 33.6246 99.3493C37.1025 98.8609 40.3436 97.7879 43.2591 96.1748C45.5308 94.9538 47.662 93.2889 49.5267 91.3057C50.0447 90.7508 50.5479 90.1736 51.0289 89.5742C53.0268 87.0435 54.6178 84.054 55.7499 80.6871L55.7943 80.5613C55.9941 79.7029 56.1717 78.8667 56.3123 78.038C56.5269 76.78 56.6749 75.559 56.7563 74.3751C56.8747 72.2587 56.7711 70.1498 56.4307 68.0927C55.8609 64.6222 54.5882 61.3811 52.7012 58.5988C52.2498 57.9328 51.7689 57.2964 51.2509 56.6896C50.7107 56.0458 50.1261 55.4391 49.5119 54.8619C47.0256 52.531 44.0139 50.792 40.8172 49.8744C38.1607 49.1345 35.3266 48.9865 32.6035 49.4379C32.4481 49.4674 32.4629 49.5266 32.4703 49.6006C32.4851 49.7486 33.4544 50.237 34.1056 50.6144L35.6004 51.4876C35.8076 51.6134 36.0591 51.6874 36.3181 51.717C37.5835 51.8354 38.8341 52.0944 40.0254 52.494C43.4219 53.6187 46.5298 55.8239 48.7719 58.7024C48.8607 58.8208 48.9495 58.9392 49.0383 59.0575C51.0659 61.7807 52.3756 65.081 52.8122 68.6255C53.0342 70.4088 53.0564 72.2365 52.8862 74.0717C52.7604 75.2926 52.5458 76.5358 52.2424 77.8382C52.1314 78.3265 52.0056 78.8297 51.865 79.3329C51.865 79.3403 51.8651 79.3551 51.8577 79.3625C50.7847 82.2558 49.3639 84.7495 47.625 86.8141C46.7888 87.8204 45.8564 88.738 44.8575 89.5668C43.1111 90.9654 41.1798 92.1345 39.1522 93.0151C36.4217 94.162 33.4248 94.8132 30.3835 94.9686C29.7471 94.9908 29.1108 94.9908 28.4744 94.9686C28.4744 94.976 28.4744 94.9908 28.4744 94.9982C27.1054 94.9686 25.7439 94.8354 24.3971 94.5986C18.8769 93.5923 13.586 90.4474 9.89356 85.9853C6.17148 81.4936 4.10694 75.8254 4.07735 70.024C4.03295 64.5408 5.29091 58.6654 7.80683 52.5532C10.1748 46.7813 13.3493 41.3129 16.398 36.2145L17.5449 34.3053C20.3494 29.6435 23.2427 24.8188 25.6625 19.7278C26.2619 18.455 26.8316 17.1453 27.3422 15.8355L27.394 15.7467C27.6382 15.1325 27.8676 14.6811 28.097 14.363C28.171 14.2372 28.2746 14.1262 28.3856 14.0374C28.4966 13.9412 28.615 13.8672 28.7334 13.8228C28.9258 13.7488 29.1404 13.734 29.355 13.734C29.6139 13.734 29.8359 13.845 30.0209 14.0226C30.3613 14.3112 30.6721 14.8661 31.0273 15.7467L31.0791 15.8355C31.5971 17.1453 32.1595 18.455 32.7662 19.7278C35.1786 24.8262 38.0793 29.6435 40.8764 34.3053L42.0234 36.2145C44.9759 41.1575 48.0542 46.4483 50.3925 52.0204C50.5035 52.2868 50.6811 52.5236 50.8957 52.7234C51.7023 53.4559 52.4718 54.2403 53.1748 55.0765C54.5808 56.734 55.7721 58.5914 56.7119 60.5893C56.8599 60.9001 57.3261 60.7373 57.2447 60.4043" fill="#C9AB62"></path></g></svg> 