<?xml version="1.0" encoding="UTF-8"?> <svg xmlns="http://www.w3.org/2000/svg" width="32" height="32" viewBox="0 0 32 32" fill="none"><path d="M10 6L8.375 4.8125C7.6875 4.3125 6.875 4 6 4C3.75 4 2 5.8125 2 8V8.125C2 8.5 2.0625 8.9375 2.125 9.3125L5.4375 20H8.625L7 11.1875L6.8125 10.25L8.75 9.875L8.9375 10.875L10.625 19.875V20H15V9V8H17V9V20H21.3125V19.875L23 10.875L23.1875 9.875L25.125 10.25L24.9375 11.1875L23.3125 20H26.5L29.8125 9.3125C29.875 8.9375 29.9375 8.5 29.9375 8.125V8C29.9375 5.8125 28.1875 4 25.9375 4C25.0625 4 24.25 4.3125 23.5625 4.8125L22 6L20.75 4.4375C19.6875 2.9375 17.9375 2 16 2C14 2 12.25 2.9375 11.1875 4.4375L10 6ZM28 22H4L0.25 9.875C0.0625 9.3125 0 8.75 0 8.125V8C0 4.6875 2.6875 2 6 2C7.3125 2 8.5625 2.5 9.5625 3.25C11.0625 1.3125 13.375 0 16 0C18.5625 0 20.9375 1.3125 22.375 3.25C23.375 2.5 24.625 2 26 2C29.3125 2 32 4.6875 32 8V8.125C32 8.75 31.875 9.3125 31.6875 9.875L28 22ZM4 24H6V30H26V24H28V30V32H26H6H4V30V24Z" fill="#C9AB62"></path></svg> 