<?xml version="1.0" encoding="UTF-8"?> <svg xmlns="http://www.w3.org/2000/svg" width="33" height="27" viewBox="0 0 33 27" fill="none"><path d="M10.75 2.6875L5.75 8.6875L5.0625 9.5L4.25 8.75L1.25 5.75L0.5625 5L2 3.625L2.6875 4.3125L4.875 6.5625L9.1875 1.375L9.875 0.625L11.375 1.875L10.75 2.6875ZM10.75 12.6875L5.75 18.6875L5.0625 19.5L4.25 18.75L1.25 15.75L0.5625 15L2 13.625L2.6875 14.3125L4.875 16.5625L9.1875 11.375L9.875 10.625L11.375 11.875L10.75 12.6875ZM13 4H14H32H33V6H32H14H13V4ZM13 14H14H32H33V16H32H14H13V14ZM11 24H12H32H33V26H32H12H11V24ZM7 25C7 26.125 6.0625 27 5 27C3.875 27 3 26.125 3 25C3 23.9375 3.875 23 5 23C6.0625 23 7 23.9375 7 25Z" fill="#C9AB62"></path></svg> 